<?xml version="1.0" encoding="utf-8"?>
<!-- Generator: Adobe Illustrator 26.0.3, SVG Export Plug-In . SVG Version: 6.00 Build 0)  -->
<svg version="1.1" id="Layer_1" xmlns="http://www.w3.org/2000/svg" xmlns:xlink="http://www.w3.org/1999/xlink" x="0px" y="0px"
	 viewBox="0 0 354.9 71.3" style="enable-background:new 0 0 354.9 71.3;" xml:space="preserve">
<g>
	<g>
		<g>
			<path d="M308.5,17.2h11.1v5.6c2.7-3.6,6.4-6.3,12.2-6.3c9.1,0,17.8,7.1,17.8,20.2v0.1c0,13.1-8.5,20.2-17.8,20.2
				c-5.9,0-9.6-2.7-12.2-5.8v16.8h-11.1V17.2z M338.5,36.8v-0.1c0-6.5-4.4-10.8-9.6-10.8c-5.2,0-9.5,4.3-9.5,10.8v0.1
				c0,6.5,4.3,10.8,9.5,10.8C334.1,47.6,338.5,43.4,338.5,36.8z"/>
			<g>
				<g>
					<g>
						<g>
							<g>
								<path d="M88.4,4.8h10.4l23.9,31.8V4.8h11.1v51.4h-9.6L99.5,23.8v32.5H88.4V4.8z"/>
								<path d="M139.1,36.9v-0.1c0-11.2,8-20.3,19.3-20.3c13.1,0,19,10.1,19,21.2c0,0.9-0.1,1.9-0.1,2.9h-27.2
									c1.1,5,4.6,7.7,9.6,7.7c3.7,0,6.4-1.2,9.5-4l6.3,5.6c-3.6,4.5-8.9,7.3-16,7.3C147.8,57.1,139.1,48.9,139.1,36.9z
									 M166.7,33.7c-0.7-5-3.6-8.3-8.2-8.3c-4.6,0-7.6,3.3-8.5,8.3H166.7z"/>
								<path d="M184.4,45.2V26.7h-4.7v-9.5h4.7v-10h11.1v10h9.2v9.5h-9.2v16.7c0,2.6,1.1,3.8,3.6,3.8c2,0,3.9-0.5,5.5-1.4v8.9
									c-2.3,1.4-5,2.3-8.8,2.3C189,56.9,184.4,54.2,184.4,45.2z"/>
								<path d="M262.9,17.2H274v5.6c2.7-3.6,6.4-6.3,12.2-6.3c9.1,0,17.8,7.1,17.8,20.2v0.1c0,13.1-8.5,20.2-17.8,20.2
									c-5.9,0-9.6-2.7-12.2-5.8v16.8h-11.1V17.2z M292.9,36.8v-0.1c0-6.5-4.4-10.8-9.6-10.8c-5.2,0-9.5,4.3-9.5,10.8v0.1
									c0,6.5,4.3,10.8,9.5,10.8C288.5,47.6,292.9,43.4,292.9,36.8z"/>
								<path d="M228.7,4.8h10.1l21.3,51.4h-11.7l-4.7-11.5h-20.2l-4.7,11.5h-11.4L228.7,4.8z M240.4,34.9l-6.8-16.6l-6.8,16.6
									H240.4z"/>
							</g>
						</g>
					</g>
				</g>
			</g>
		</g>
		<polygon points="4.5,4.8 4.5,56.3 28.5,56.3 28.5,25.4 42.2,25.4 42.2,56.3 66.2,56.3 66.2,4.8 		"/>
	</g>
</g>
</svg>
